{
	"asset":{
		"generator":"Khronos glTF Blender I/O v3.6.28",
		"version":"2.0"
	},
	"scene":0,
	"scenes":[
		{
			"name":"Scene",
			"nodes":[
				0
			]
		}
	],
	"nodes":[
		{
			"mesh":0,
			"name":"Cube",
			"scale":[
				0.6000000238418579,
				0.15000000596046448,
				0.25
			]
		}
	],
	"materials":[
		{
			"doubleSided":true,
			"name":"Material",
			"pbrMetallicRoughness":{
				"baseColorFactor":[
					0.7525760531425476,
					0.7068337798118591,
					0.8000000715255737,
					1
				],
				"metallicFactor":0,
				"roughnessFactor":0.5
			}
		}
	],
	"meshes":[
		{
			"name":"Cube",
			"primitives":[
				{
					"attributes":{
						"POSITION":0,
						"NORMAL":1,
						"TEXCOORD_0":2
					},
					"indices":3,
					"material":0
				}
			]
		}
	],
	"accessors":[
		{
			"bufferView":0,
			"componentType":5126,
			"count":26566,
			"max":[
				22.099973678588867,
				47.099998474121094,
				1
			],
			"min":[
				-1,
				-1,
				-1
			],
			"type":"VEC3"
		},
		{
			"bufferView":1,
			"componentType":5126,
			"count":26566,
			"type":"VEC3"
		},
		{
			"bufferView":2,
			"componentType":5126,
			"count":26566,
			"type":"VEC2"
		},
		{
			"bufferView":3,
			"componentType":5123,
			"count":36534,
			"type":"SCALAR"
		}
	],
	"bufferViews":[
		{
			"buffer":0,
			"byteLength":318792,
			"byteOffset":0,
			"target":34962
		},
		{
			"buffer":0,
			"byteLength":318792,
			"byteOffset":318792,
			"target":34962
		},
		{
			"buffer":0,
			"byteLength":212528,
			"byteOffset":637584,
			"target":34962
		},
		{
			"buffer":0,
			"byteLength":73068,
			"byteOffset":850112,
			"target":34963
		}
	],
	"buffers":[
		{
			"byteLength":923180,
			"uri":"data:application/octet-stream;base64,"
		}
	]
}
