{
	"asset":{
		"generator":"Khronos glTF Blender I/O v3.6.28",
		"version":"2.0"
	},
	"scene":0,
	"scenes":[
		{
			"name":"Scene",
			"nodes":[
				0,
				1,
				2,
				3,
				4
			]
		}
	],
	"nodes":[
		{
			"mesh":0,
			"name":"body"
		},
		{
			"mesh":1,
			"name":"rodadp.001",
			"translation":[
				-1.0092483758926392,
				0.44523951411247253,
				2.1602723598480225
			]
		},
		{
			"mesh":2,
			"name":"rodabk.001",
			"translation":[
				-1.0092483758926392,
				0.44523951411247253,
				-1.3344594240188599
			]
		},
		{
			"mesh":3,
			"name":"rodabk",
			"translation":[
				1.0906765460968018,
				0.44523951411247253,
				-1.3344594240188599
			]
		},
		{
			"mesh":4,
			"name":"rodadp",
			"translation":[
				1.0906765460968018,
				0.44523951411247253,
				2.1602723598480225
			]
		}
	],
	"materials":[
		{
			"doubleSided":true,
			"name":"body",
			"pbrMetallicRoughness":{
				"baseColorTexture":{
					"index":0
				},
				"metallicFactor":0,
				"roughnessFactor":0.5
			}
		},
		{
			"doubleSided":true,
			"name":"roda",
			"pbrMetallicRoughness":{
				"baseColorTexture":{
					"index":1
				},
				"metallicFactor":0,
				"roughnessFactor":0.5
			}
		}
	],
	"meshes":[
		{
			"name":"Cube.001",
			"primitives":[
				{
					"attributes":{
						"POSITION":0,
						"NORMAL":1,
						"TEXCOORD_0":2
					},
					"indices":3,
					"material":0
				}
			]
		},
		{
			"name":"Circle.002",
			"primitives":[
				{
					"attributes":{
						"POSITION":4,
						"NORMAL":5,
						"TEXCOORD_0":6
					},
					"indices":7,
					"material":1
				}
			]
		},
		{
			"name":"Circle.001",
			"primitives":[
				{
					"attributes":{
						"POSITION":8,
						"NORMAL":9,
						"TEXCOORD_0":10
					},
					"indices":7,
					"material":1
				}
			]
		},
		{
			"name":"Circle.003",
			"primitives":[
				{
					"attributes":{
						"POSITION":11,
						"NORMAL":12,
						"TEXCOORD_0":13
					},
					"indices":14,
					"material":1
				}
			]
		},
		{
			"name":"Circle",
			"primitives":[
				{
					"attributes":{
						"POSITION":15,
						"NORMAL":16,
						"TEXCOORD_0":17
					},
					"indices":14,
					"material":1
				}
			]
		}
	],
	"textures":[
		{
			"sampler":0,
			"source":0
		},
		{
			"sampler":0,
			"source":1
		}
	],
	"images":[
		{
			"bufferView":4,
			"mimeType":"image/png",
			"name":"PoliceCAR1done"
		},
		{
			"bufferView":9,
			"mimeType":"image/png",
			"name":"roda"
		}
	],
	"accessors":[
		{
			"bufferView":0,
			"componentType":5126,
			"count":1700,
			"max":[
				1.1640880107879639,
				1.9929478168487549,
				3.4012656211853027
			],
			"min":[
				-1.1092674732208252,
				0.3797178268432617,
				-2.7616214752197266
			],
			"type":"VEC3"
		},
		{
			"bufferView":1,
			"componentType":5126,
			"count":1700,
			"type":"VEC3"
		},
		{
			"bufferView":2,
			"componentType":5126,
			"count":1700,
			"type":"VEC2"
		},
		{
			"bufferView":3,
			"componentType":5123,
			"count":3564,
			"type":"SCALAR"
		},
		{
			"bufferView":5,
			"componentType":5126,
			"count":458,
			"max":[
				0.1509973257780075,
				0.44212624430656433,
				0.44212624430656433
			],
			"min":[
				-0.14020632207393646,
				-0.44212624430656433,
				-0.44212624430656433
			],
			"type":"VEC3"
		},
		{
			"bufferView":6,
			"componentType":5126,
			"count":458,
			"type":"VEC3"
		},
		{
			"bufferView":7,
			"componentType":5126,
			"count":458,
			"type":"VEC2"
		},
		{
			"bufferView":8,
			"componentType":5123,
			"count":912,
			"type":"SCALAR"
		},
		{
			"bufferView":10,
			"componentType":5126,
			"count":458,
			"max":[
				0.1509973257780075,
				0.44212624430656433,
				0.44212624430656433
			],
			"min":[
				-0.14020632207393646,
				-0.44212624430656433,
				-0.44212624430656433
			],
			"type":"VEC3"
		},
		{
			"bufferView":11,
			"componentType":5126,
			"count":458,
			"type":"VEC3"
		},
		{
			"bufferView":12,
			"componentType":5126,
			"count":458,
			"type":"VEC2"
		},
		{
			"bufferView":13,
			"componentType":5126,
			"count":458,
			"max":[
				0.14020632207393646,
				0.44212624430656433,
				0.44212624430656433
			],
			"min":[
				-0.1509973257780075,
				-0.44212624430656433,
				-0.44212624430656433
			],
			"type":"VEC3"
		},
		{
			"bufferView":14,
			"componentType":5126,
			"count":458,
			"type":"VEC3"
		},
		{
			"bufferView":15,
			"componentType":5126,
			"count":458,
			"type":"VEC2"
		},
		{
			"bufferView":16,
			"componentType":5123,
			"count":912,
			"type":"SCALAR"
		},
		{
			"bufferView":17,
			"componentType":5126,
			"count":458,
			"max":[
				0.14020632207393646,
				0.44212624430656433,
				0.44212624430656433
			],
			"min":[
				-0.1509973257780075,
				-0.44212624430656433,
				-0.44212624430656433
			],
			"type":"VEC3"
		},
		{
			"bufferView":18,
			"componentType":5126,
			"count":458,
			"type":"VEC3"
		},
		{
			"bufferView":19,
			"componentType":5126,
			"count":458,
			"type":"VEC2"
		}
	],
	"bufferViews":[
		{
			"buffer":0,
			"byteLength":20400,
			"byteOffset":0,
			"target":34962
		},
		{
			"buffer":0,
			"byteLength":20400,
			"byteOffset":20400,
			"target":34962
		},
		{
			"buffer":0,
			"byteLength":13600,
			"byteOffset":40800,
			"target":34962
		},
		{
			"buffer":0,
			"byteLength":7128,
			"byteOffset":54400,
			"target":34963
		},
		{
			"buffer":0,
			"byteLength":37747,
			"byteOffset":61528
		},
		{
			"buffer":0,
			"byteLength":5496,
			"byteOffset":99276,
			"target":34962
		},
		{
			"buffer":0,
			"byteLength":5496,
			"byteOffset":104772,
			"target":34962
		},
		{
			"buffer":0,
			"byteLength":3664,
			"byteOffset":110268,
			"target":34962
		},
		{
			"buffer":0,
			"byteLength":1824,
			"byteOffset":113932,
			"target":34963
		},
		{
			"buffer":0,
			"byteLength":15174,
			"byteOffset":115756
		},
		{
			"buffer":0,
			"byteLength":5496,
			"byteOffset":130932,
			"target":34962
		},
		{
			"buffer":0,
			"byteLength":5496,
			"byteOffset":136428,
			"target":34962
		},
		{
			"buffer":0,
			"byteLength":3664,
			"byteOffset":141924,
			"target":34962
		},
		{
			"buffer":0,
			"byteLength":5496,
			"byteOffset":145588,
			"target":34962
		},
		{
			"buffer":0,
			"byteLength":5496,
			"byteOffset":151084,
			"target":34962
		},
		{
			"buffer":0,
			"byteLength":3664,
			"byteOffset":156580,
			"target":34962
		},
		{
			"buffer":0,
			"byteLength":1824,
			"byteOffset":160244,
			"target":34963
		},
		{
			"buffer":0,
			"byteLength":5496,
			"byteOffset":162068,
			"target":34962
		},
		{
			"buffer":0,
			"byteLength":5496,
			"byteOffset":167564,
			"target":34962
		},
		{
			"buffer":0,
			"byteLength":3664,
			"byteOffset":173060,
			"target":34962
		}
	],
	"samplers":[
		{
			"magFilter":9729,
			"minFilter":9987
		}
	],
	"buffers":[
		{
			"byteLength":176724,
			"uri":"data:application/octet-stream;base64,"
		}
	]
}
